# xmcd CD database file
#
# Track frame offsets:
#	150
#	12969
#	49414
#	61721
#	70463
#	85173
#	96912
#	101424
#	116881
#	153241
#	169584
#	189602
#	198113
#	211623
#	229674
#	234080
#	248919
#	258067
#	265237
#	277891
#
# Disc length: 4428 seconds
#
# Revision: 0
# Processed by: cddbd v1.5.2PL0 Copyright (c) Steve Scherf et al.
# Submitted via: CDex 1.51
#
DISCID=02114a14
DTITLE=Semafor - Benefice CD2
DYEAR=1966
DGENRE=Jazz
TTITLE0=Sadlo na chleba
TTITLE1=O vyzdobe kabaretu a Benefici
TTITLE2=Cop
TTITLE3=Nedelejte ze mne chudinku
TTITLE4=Uvod
TTITLE5=Jen mi Fauste cisty vino nalej
TTITLE6=Vystup o strachu
TTITLE7=Neotalej
TTITLE8=Souboj o Marketku
TTITLE9=O uvezneni Marketky
TTITLE10=Ve vezeni
TTITLE11=Jsem za mrizemi
TTITLE12=Osvobozeni Marketky
TTITLE13=Kamaradi
TTITLE14=Zaver
TTITLE15=Toulavi zpevaci
TTITLE16=pridavek - Tulák
TTITLE17=Uvod predstaveni (bonus)
TTITLE18=Sedmdesat hrobariku (bonus)
TTITLE19=Dialog hrobniku (bonus)
EXTD=YEAR: 1966
EXTT0=
EXTT1=
EXTT2=
EXTT3=
EXTT4=
EXTT5=
EXTT6=
EXTT7=
EXTT8=
EXTT9=
EXTT10=
EXTT11=
EXTT12=
EXTT13=
EXTT14=
EXTT15=
EXTT16=
EXTT17=
EXTT18=
EXTT19=
PLAYORDER=
